<?xml version="1.0" encoding="UTF-8" standalone="no"?>
<svg
   height="20.000025"
   width="19.999968"
   viewBox="-100.7682 -167.947 14.555383 25.192081"
   version="1.1"
   id="svg8"
   sodipodi:docname="Instagram-Glyph-Black-Logo.svg.svg"
   inkscape:version="1.1.2 (b8e25be833, 2022-02-05)"
   xmlns:inkscape="http://www.inkscape.org/namespaces/inkscape"
   xmlns:sodipodi="http://sodipodi.sourceforge.net/DTD/sodipodi-0.dtd"
   xmlns="http://www.w3.org/2000/svg"
   xmlns:svg="http://www.w3.org/2000/svg">
  <defs
     id="defs12" />
  <sodipodi:namedview
     id="namedview10"
     pagecolor="#ffffff"
     bordercolor="#666666"
     borderopacity="1.0"
     inkscape:pageshadow="2"
     inkscape:pageopacity="0.0"
     inkscape:pagecheckerboard="0"
     showgrid="false"
     inkscape:zoom="10.38"
     inkscape:cx="7.0327553"
     inkscape:cy="9.4412332"
     inkscape:window-width="1366"
     inkscape:window-height="705"
     inkscape:window-x="-8"
     inkscape:window-y="-8"
     inkscape:window-maximized="1"
     inkscape:current-layer="g6"
     fit-margin-top="0"
     fit-margin-left="0"
     fit-margin-right="0"
     fit-margin-bottom="0" />
  <g
     fill="#100f0d"
     id="g6"
     transform="translate(-609.23537,-491.24498)">
    <path
       d="m 515.74488,340.09267 c -2.31893,0 -4.19872,-1.87979 -4.19872,-4.19865 0,-2.31893 1.87979,-4.19873 4.19872,-4.19873 2.31885,0 4.19866,1.8798 4.19866,4.19873 0,2.31886 -1.87981,4.19865 -4.19866,4.19865 z m 0,-10.66691 c -3.57236,0 -6.46826,2.8959 -6.46826,6.46826 0,3.57229 2.8959,6.46819 6.46826,6.46819 3.57229,0 6.46819,-2.8959 6.46819,-6.46819 0,-3.57236 -2.8959,-6.46826 -6.46819,-6.46826 m 8.23531,-0.25557 c 0,0.83484 -0.67677,1.51152 -1.51155,1.51152 -0.83475,0 -1.51152,-0.67668 -1.51152,-1.51152 0,-0.83478 0.67677,-1.51155 1.51152,-1.51155 0.83478,0 1.51155,0.67677 1.51155,1.51155 m -8.23531,-5.87223 c -3.42089,0 -3.84986,0.0145 -5.19338,0.0758 -1.34069,0.0612 -2.25632,0.27413 -3.05756,0.58545 -0.8283,0.3219 -1.53074,0.75262 -2.23098,1.45286 -0.70027,0.70024 -1.13101,1.40277 -1.45286,2.23107 -0.3114,0.80119 -0.5243,1.71682 -0.58553,3.05752 -0.0613,1.34352 -0.0757,1.77248 -0.0757,5.19338 0,3.42082 0.0145,3.84978 0.0757,5.19329 0.0612,1.34071 0.27413,2.25634 0.58553,3.05753 0.3219,0.8283 0.75262,1.53075 1.45286,2.23105 0.70028,0.70025 1.40268,1.13098 2.23098,1.45288 0.80124,0.31132 1.71687,0.52425 3.05756,0.58545 1.34352,0.0613 1.77249,0.0758 5.19338,0.0758 3.42083,0 3.84979,-0.0145 5.19331,-0.0758 1.34069,-0.0612 2.25632,-0.27413 3.05752,-0.58545 0.8283,-0.3219 1.53074,-0.75263 2.23106,-1.45288 0.70023,-0.7003 1.13097,-1.40275 1.45287,-2.23105 0.31131,-0.80119 0.52427,-1.71682 0.58545,-3.05753 0.0613,-1.34351 0.0758,-1.77247 0.0758,-5.19329 0,-3.4209 -0.0145,-3.84986 -0.0758,-5.19338 -0.0612,-1.3407 -0.27414,-2.25633 -0.58545,-3.05752 -0.3219,-0.8283 -0.75264,-1.53083 -1.45287,-2.23107 -0.70032,-0.70024 -1.40276,-1.13096 -2.23106,-1.45286 -0.8012,-0.31132 -1.71683,-0.52429 -3.05752,-0.58545 -1.34352,-0.0613 -1.77248,-0.0758 -5.19331,-0.0758 z m 0,2.26954 c 3.36323,0 3.76163,0.0129 5.08984,0.0736 1.22813,0.0561 1.89506,0.26118 2.33888,0.43368 0.588,0.22853 1.00758,0.50145 1.44832,0.94222 0.44082,0.44077 0.71374,0.86041 0.94227,1.44833 0.1725,0.44385 0.37769,1.11083 0.43368,2.33892 0.0606,1.32821 0.0736,1.72661 0.0736,5.08986 0,3.36327 -0.0128,3.76167 -0.0736,5.08988 -0.056,1.22813 -0.26118,1.89506 -0.43368,2.33888 -0.22853,0.588 -0.50145,1.00758 -0.94227,1.44832 -0.44074,0.44082 -0.86036,0.71374 -1.44828,0.94227 -0.44386,0.1725 -1.11083,0.3777 -2.33892,0.43368 -1.32798,0.0606 -1.72636,0.0736 -5.08988,0.0736 -3.36351,0 -3.7618,-0.0129 -5.08986,-0.0736 -1.22814,-0.0559 -1.89507,-0.26115 -2.33888,-0.43366 -0.58801,-0.22853 -1.00759,-0.50144 -1.44833,-0.94227 -0.44077,-0.44072 -0.71373,-0.86036 -0.94226,-1.44828 -0.1725,-0.44384 -0.37766,-1.11083 -0.43368,-2.33891 -0.0606,-1.32822 -0.0736,-1.72662 -0.0736,-5.08987 0,-3.36326 0.0129,-3.76166 0.0736,-5.08988 0.0559,-1.22812 0.26118,-1.89507 0.43368,-2.33888 0.22853,-0.58799 0.50149,-1.00758 0.94222,-1.44831 0.44078,-0.44083 0.86041,-0.71374 1.44833,-0.94227 0.44385,-0.17251 1.11083,-0.37771 2.33892,-0.43368 1.32821,-0.0606 1.72661,-0.0736 5.08986,-0.0736"
       style="fill:#ffffff;fill-opacity:1;stroke-width:0.0472351"
       id="path1567"
       sodipodi:nodetypes="ssssscsssccssscscccccscccccscccccscccccsccccccscccccscccccscccccc" />
  </g>
</svg>
